<svg id="svg" version="1.1" width="400" height="158.10810810810813" viewBox="0, 0, 400,158.10810810810813" xmlns="http://www.w3.org/2000/svg">
  <defs></defs>
  <g id="svgg">
    <path id="path0" d="M 195.424 19.261 C 192.309 20.039 191.815 21.485 192.118 28.953 C 192.355 34.803 192.573 35.546 194.334 36.505 L 195.221 36.989 L 200.554 37.028 C 203.488 37.05 210.688 37.003 216.554 36.924 C 232.239 36.715 244.364 36.893 245.138 37.346 C 246.63 38.219 246.385 39.685 244.371 41.928 C 243.675 42.704 242.412 44.163 241.565 45.172 C 240.718 46.18 239.504 47.568 238.868 48.255 C 238.231 48.943 236.703 50.668 235.471 52.088 C 234.24 53.509 232.651 55.293 231.941 56.051 C 231.231 56.81 229.469 58.835 228.026 60.551 C 224.292 64.994 221.66 68.029 218.31 71.757 C 216.703 73.545 214.891 75.57 214.283 76.257 C 213.676 76.943 212.288 78.446 211.2 79.597 C 207.901 83.084 204.582 86.754 203.293 88.338 C 202.106 89.798 199.053 93.263 195.928 96.698 C 192.788 100.15 192.585 100.747 192.505 106.782 C 192.368 117.125 192.418 117.191 200.554 117.432 C 203.213 117.511 205.679 117.624 206.035 117.684 C 206.391 117.743 211.491 117.698 217.369 117.584 C 227.921 117.379 231.213 117.399 261.721 117.865 C 274.717 118.063 275.605 117.669 276.001 111.531 C 276.507 103.675 275.714 100.706 272.944 100.086 C 272.259 99.933 266.961 99.914 250.219 100.005 C 238.212 100.071 227.666 100.125 226.784 100.126 C 222.688 100.131 221.871 98.394 224.57 95.421 C 225.112 94.825 226.113 93.663 226.796 92.838 C 227.478 92.013 228.597 90.738 229.281 90.005 C 229.964 89.272 231.222 87.834 232.074 86.81 C 232.927 85.786 234.286 84.249 235.094 83.393 C 239.082 79.175 243.138 74.532 247.809 68.838 C 252.442 63.19 255.38 59.831 260.435 54.403 C 261.562 53.193 263.751 50.659 265.301 48.771 C 269.067 44.184 271.001 41.913 273.24 39.446 C 276.324 36.049 276.463 35.624 276.59 29.172 C 276.741 21.487 276.316 20.076 273.638 19.38 C 272.535 19.093 196.559 18.978 195.424 19.261 M 294.012 19.364 C 291.174 20.23 290.639 22.304 291.117 30.588 C 291.362 34.833 291.723 35.783 293.405 36.597 C 294.318 37.039 292.175 37.016 325.554 36.932 C 343.566 36.887 343.653 36.89 344.513 37.712 C 345.487 38.644 345.068 40.036 343.196 42.091 C 342.568 42.78 341.458 44.055 340.729 44.924 C 340 45.794 338.95 46.994 338.396 47.591 C 337.841 48.188 336.188 50.062 334.721 51.753 C 333.254 53.445 331.411 55.514 330.625 56.351 C 329.84 57.187 327.92 59.402 326.359 61.272 C 321.818 66.712 314.387 75.121 311.129 78.505 C 310.07 79.605 308.571 81.217 307.799 82.088 C 307.026 82.959 305.781 84.324 305.033 85.12 C 304.285 85.917 303.111 87.267 302.424 88.12 C 300.957 89.944 297.553 93.813 295.34 96.172 C 291.548 100.213 291.141 101.657 291.439 110.015 C 291.694 117.15 291.746 117.198 299.471 117.427 C 302.083 117.505 304.587 117.619 305.034 117.68 C 305.481 117.742 310.393 117.699 315.95 117.585 C 324.232 117.415 328.865 117.419 341.638 117.608 C 363.044 117.924 370.059 117.901 371.438 117.506 C 374.524 116.625 375.03 115.211 374.941 107.719 C 374.875 102.139 374.654 101.404 372.721 100.364 L 372.054 100.005 L 352.471 100.005 C 341.7 100.005 330.9 100.041 328.471 100.086 C 323.59 100.176 323.134 100.111 322.393 99.231 C 321.557 98.237 321.884 97.255 323.75 95.153 C 324.473 94.338 325.4 93.259 325.809 92.755 C 326.218 92.251 327.306 91.013 328.227 90.005 C 329.147 88.997 330.458 87.497 331.141 86.672 C 331.824 85.847 332.987 84.534 333.725 83.755 C 337.404 79.874 342.993 73.483 346.553 69.088 C 350.304 64.458 354.68 59.424 358.143 55.755 C 360.781 52.961 361.857 51.726 364.463 48.505 C 366.441 46.061 368.098 44.095 370.054 41.872 C 370.696 41.143 371.913 39.761 372.759 38.801 C 375.183 36.048 375.377 35.442 375.556 30.088 C 375.797 22.914 375.334 20.666 373.414 19.684 L 372.447 19.19 L 333.667 19.143 C 298.466 19.101 294.807 19.122 294.012 19.364 M 36.915 19.858 C 36.838 19.94 31.98 20.005 25.999 20.005 C 15.803 20.005 15.19 20.022 14.638 20.316 C 13.702 20.814 13.164 21.419 12.774 22.411 L 12.409 23.338 L 12.346 50.838 C 12.311 65.963 12.273 82.238 12.262 87.005 C 12.222 103.324 12.493 115.045 12.931 115.87 C 14.047 117.977 15.605 118.301 23.721 118.115 C 32.025 117.924 32.39 117.572 31.987 110.172 C 31.881 108.223 31.904 104.712 32.062 98.922 C 32.189 94.292 32.316 89.267 32.346 87.755 C 32.446 82.635 32.834 82.365 40.221 82.285 C 48.464 82.195 48.03 81.868 53.058 91.922 C 56.393 98.59 60.829 107.768 61.798 110.005 C 64.115 115.357 65.368 117.261 66.912 117.778 C 67.815 118.08 82.9 118.193 83.937 117.906 C 86.445 117.21 86.885 115.929 85.449 113.502 C 84.764 112.346 80.458 103.979 79.317 101.589 C 78.705 100.306 73.7 90.319 70.254 83.505 C 66.791 76.658 66.813 76.362 71.008 73.505 C 82.759 65.502 86.698 53.108 82.027 38.838 C 79.149 30.046 69.804 22.246 60.666 21.009 C 56.084 20.388 37.277 19.477 36.915 19.858 M 128.25 21.156 C 125.532 21.901 123.223 26.187 118.768 38.755 C 118.492 39.534 117.928 40.922 117.515 41.838 C 117.102 42.755 116.517 44.18 116.216 45.005 C 115.914 45.83 115.391 47.142 115.054 47.922 C 114.717 48.701 114.12 50.238 113.727 51.338 C 113.335 52.438 112.708 54.088 112.334 55.005 C 111.96 55.922 111.247 57.722 110.749 59.005 C 110.252 60.288 109.498 62.201 109.074 63.255 C 107.31 67.639 103.248 78.096 103.053 78.755 C 102.929 79.177 100.226 85.904 98.466 90.172 C 97.937 91.455 97.129 93.33 96.671 94.338 C 95.481 96.957 94.1 100.261 93.466 102.005 C 93.167 102.83 92.495 104.443 91.973 105.588 C 91.452 106.734 90.706 108.534 90.317 109.588 C 89.927 110.643 89.196 112.367 88.692 113.422 C 87.51 115.897 87.511 116.41 88.701 117.73 C 89.624 118.753 90.074 118.844 93.804 118.772 C 99.166 118.668 101.235 118.679 103.388 118.824 C 107.326 119.09 108.456 118.041 110.629 112.103 C 111.605 109.436 113.712 104.14 114.548 102.252 C 114.935 101.379 115.61 99.654 116.048 98.419 C 117.661 93.869 118.603 92.747 121.21 92.269 C 122.594 92.016 148.215 92.02 149.856 92.274 C 152.861 92.739 154.28 94.557 156.086 100.255 C 156.507 101.584 157.209 103.586 157.647 104.703 C 158.084 105.821 158.712 107.679 159.043 108.833 C 160.221 112.939 161.77 116.695 162.649 117.574 C 163.932 118.857 164.251 118.897 173.724 118.938 C 186.103 118.992 185.789 119.544 180.049 107.838 C 178.061 103.783 175.925 98.855 174.052 94.005 C 173.663 92.997 173.028 91.497 172.642 90.672 C 172.256 89.847 171.584 88.197 171.148 87.005 C 170.713 85.813 170.166 84.463 169.933 84.005 C 169.701 83.547 169.247 82.534 168.924 81.755 C 168.601 80.976 167.88 79.383 167.321 78.216 C 166.762 77.049 166.304 76.043 166.304 75.98 C 166.304 75.917 165.637 74.472 164.822 72.769 C 161.801 66.456 161.496 65.8 160.753 64.005 C 160.336 62.997 159.343 60.747 158.546 59.005 C 157.749 57.263 156.808 55.108 156.454 54.216 C 156.1 53.324 155.505 51.986 155.132 51.243 C 154.758 50.5 154.125 49.093 153.724 48.115 C 153.323 47.138 152.684 45.663 152.304 44.838 C 151.924 44.013 151.365 42.701 151.063 41.922 C 150.761 41.142 149.577 38.443 148.433 35.922 C 147.288 33.401 146.187 30.888 145.986 30.338 C 144.253 25.601 142.352 22.367 140.792 21.505 L 139.888 21.005 L 134.471 20.97 C 130.403 20.944 128.854 20.991 128.25 21.156 M 52.064 37.648 C 60.226 39.552 63.539 43.257 63.257 50.164 C 63.065 54.866 61.692 57.478 58.129 59.918 C 54.474 62.422 53.437 62.615 43.471 62.647 C 31.374 62.686 32.159 63.5 32.164 50.922 C 32.17 36.433 31.504 37.228 43.554 37.318 C 49.636 37.364 51.088 37.42 52.064 37.648 M 135.873 50.431 C 136.795 51.24 138.82 55.618 140.88 61.255 C 141.366 62.584 142.159 64.647 142.642 65.838 C 144.468 70.341 144.414 71.872 142.392 72.912 L 141.563 73.338 L 134.725 73.338 C 124.176 73.338 124.266 73.488 128.328 62.755 C 129.247 60.326 130.41 57.213 130.912 55.838 C 132.952 50.248 134.162 48.929 135.873 50.431" stroke="none" fill="#111110" fill-rule="evenodd"></path>
    <text style="fill: rgb(51, 51, 51); font-family: &quot;OCR A&quot;; font-size: 7.1px; white-space: pre;" x="199.324" y="149.141">@ConfusedParrotFish, 2022</text>
    <path id="path1" d="M-0.000 144.542 L 0.000 158.000 23.958 157.993 L 47.917 157.986 48.320 157.368 C 48.541 157.028,49.091 156.199,49.541 155.525 C 49.992 154.852,53.987 149.765,58.421 144.222 C 67.714 132.602,67.852 132.377,66.210 131.562 C 65.513 131.215,66.180 131.221,20.042 131.125 L -0.000 131.083 -0.000 144.542 M136.296 131.345 C 135.127 131.519,134.501 131.831,133.699 132.639 C 132.644 133.702,113.500 157.662,113.500 157.919 C 113.500 157.963,128.462 158.000,146.750 158.000 C 175.325 158.000,180.000 157.967,180.000 157.764 C 180.000 157.634,180.058 157.503,180.129 157.472 C 180.199 157.442,180.758 156.653,181.371 155.720 C 181.983 154.787,185.925 149.724,190.130 144.470 C 194.335 139.216,197.975 134.615,198.218 134.247 C 199.087 132.930,198.969 132.030,197.862 131.528 C 197.181 131.219,138.324 131.044,136.296 131.345 " stroke="none" fill="#f90583" fill-rule="evenodd"></path>
    <path id="path3" d="M71.017 131.000 C 69.854 131.062,69.419 131.148,69.327 131.333 C 69.258 131.471,68.935 132.146,68.608 132.833 C 68.024 134.063,51.407 155.115,49.367 157.209 L 48.595 158.001 80.756 157.959 L 112.917 157.917 113.819 156.133 C 114.628 154.534,115.569 153.289,122.961 144.050 C 131.248 133.691,132.852 131.508,132.458 131.126 C 132.372 131.043,72.517 130.920,71.017 131.000 " stroke="none" fill="#6b9ceb" fill-rule="evenodd"></path>
  </g>
</svg>